<?xml version="1.0" encoding="UTF-8" standalone="no"?>
<!-- Created with Inkscape (http://www.inkscape.org/) -->

<svg
   xmlns:dc="http://purl.org/dc/elements/1.1/"
   xmlns:cc="http://creativecommons.org/ns#"
   xmlns:rdf="http://www.w3.org/1999/02/22-rdf-syntax-ns#"
   xmlns:svg="http://www.w3.org/2000/svg"
   xmlns="http://www.w3.org/2000/svg"
   xmlns:sodipodi="http://sodipodi.sourceforge.net/DTD/sodipodi-0.dtd"
   xmlns:inkscape="http://www.inkscape.org/namespaces/inkscape"
   width="84"
   height="84"
   viewBox="0 0 22.224999 22.225001"
   version="1.1"
   id="svg8"
   inkscape:version="0.92.4 (5da689c313, 2019-01-14)"
   sodipodi:docname="logginnmerke.svg">
  <defs
     id="defs2" />
  <sodipodi:namedview
     id="base"
     pagecolor="#ffffff"
     bordercolor="#666666"
     borderopacity="1.0"
     inkscape:pageopacity="0.0"
     inkscape:pageshadow="2"
     inkscape:zoom="5.8333987"
     inkscape:cx="89.833886"
     inkscape:cy="39.294336"
     inkscape:document-units="mm"
     inkscape:current-layer="layer1"
     showgrid="false"
     inkscape:snap-center="true"
     inkscape:window-width="1920"
     inkscape:window-height="1027"
     inkscape:window-x="-8"
     inkscape:window-y="-8"
     inkscape:window-maximized="1"
     showguides="true"
     inkscape:guide-bbox="true"
     units="px">
    <sodipodi:guide
       position="48.671194,211.18022"
       orientation="0,1"
       id="guide5354"
       inkscape:locked="false" />
    <sodipodi:guide
       position="52.382131,205.8605"
       orientation="1,0"
       id="guide5360"
       inkscape:locked="false" />
    <sodipodi:guide
       position="57.079792,205.51729"
       orientation="1,0"
       id="guide5362"
       inkscape:locked="false" />
    <sodipodi:guide
       position="53.004196,204.31606"
       orientation="1,0"
       id="guide5364"
       inkscape:locked="false" />
    <sodipodi:guide
       position="64.587468,207.10463"
       orientation="0,1"
       id="guide5366"
       inkscape:locked="false" />
    <sodipodi:guide
       position="67.826494,203.02903"
       orientation="0,1"
       id="guide5368"
       inkscape:locked="false" />
  </sodipodi:namedview>
  <metadata
     id="metadata5">
    <rdf:RDF>
      <cc:Work
         rdf:about="">
        <dc:format>image/svg+xml</dc:format>
        <dc:type
           rdf:resource="http://purl.org/dc/dcmitype/StillImage" />
        <dc:title></dc:title>
      </cc:Work>
    </rdf:RDF>
  </metadata>
  <g
     inkscape:label="Layer 1"
     inkscape:groupmode="layer"
     id="layer1"
     transform="translate(0,-274.77498)">
    <rect
       id="rect3724"
       width="5.4910026"
       height="5.1494236"
       x="1.8014183"
       y="287.0882"
       style="fill:#159aa2;fill-opacity:1;stroke-width:0.40791562" />
    <rect
       id="rect3724-2"
       width="5.491003"
       height="5.1494246"
       x="8.2827759"
       y="287.0882"
       style="fill:#159aa2;fill-opacity:1;stroke-width:0.40791562" />
    <rect
       id="rect3724-0"
       width="5.491003"
       height="5.1494246"
       x="14.804712"
       y="287.09134"
       style="fill:#159aa2;fill-opacity:1;stroke-width:0.40791562" />
    <rect
       id="rect3724-9"
       width="5.491003"
       height="5.1494246"
       x="14.804712"
       y="281.0152"
       style="fill:#159aa2;fill-opacity:1;stroke-width:0.40791562" />
    <rect
       id="rect3724-6"
       width="5.491003"
       height="5.1494246"
       x="1.8014183"
       y="281.00336"
       style="fill:#159aa2;fill-opacity:1;stroke-width:0.40791562" />
    <path
       style="fill:#159aa2;fill-opacity:1;stroke-width:0.40791562"
       d="m 3.5970216,274.92925 h 3.7233548 v 5.14942 H 1.8293671 v -3.3859 z"
       id="rect3724-7"
       inkscape:connector-curvature="0"
       sodipodi:nodetypes="cccccc" />
    <rect
       id="rect3724-24"
       width="5.491003"
       height="5.1494246"
       x="8.3086052"
       y="274.91025"
       style="fill:#159aa2;fill-opacity:1;stroke-width:0.40791562" />
    <rect
       id="rect3724-78"
       width="5.491003"
       height="5.1494246"
       x="14.774008"
       y="274.88147"
       style="fill:#159aa2;fill-opacity:1;stroke-width:0.40791562" />
    <path
       style="fill:#159aa2;fill-opacity:1;stroke-width:0.30195263"
       d="m 10.474665,281.00007 h 1.125478 z m 1.125478,0 c 1.033299,0.29543 1.578281,1.20853 1.629154,2.33671 l 0.0032,0.48478 h 0.540146 v -2.82149 z m -2.8407919,2.8095 c 0,0 -0.00636,-0.33914 0.00636,-0.51959 0.00797,-1.06967 0.7721877,-2.02068 1.7095809,-2.28991 H 8.2827895 v 2.82149 z m 3.7110379,0.0114 c 0,0 -0.0096,-0.35952 -0.0032,-0.45826 -0.04681,-1.17422 -0.573411,-1.72119 -1.411366,-1.71535 -0.819473,-0.002 -1.5088082,0.60998 -1.5174371,1.70616 -0.011142,0.17084 -0.011142,0.4675 -0.011142,0.4675 z"
       id="rect3724-6-1"
       inkscape:connector-curvature="0"
       sodipodi:nodetypes="ccccccccccccccccccccc" />
    <g
       aria-label="MANAGED"
       transform="scale(1.0389331,0.96252589)"
       style="font-style:normal;font-weight:normal;font-size:7.69535351px;line-height:1.25;font-family:sans-serif;letter-spacing:0px;word-spacing:0px;fill:#929292;fill-opacity:1;stroke:none;stroke-width:0.19238383"
       id="text5399">
      <path
         d="M 4.0603853,308.01804 H 3.7131926 v -2.24974 l -0.7259484,1.5308 H 2.7803314 l -0.7206879,-1.5308 v 2.24974 H 1.7352462 v -2.61096 h 0.4734446 l 0.696139,1.45365 0.6733434,-1.45365 h 0.4822121 z"
         style="font-size:3.59116507px;stroke-width:0.19238383;fill:#929292;fill-opacity:1"
         id="path5401" />
      <path
         d="M 6.8238991,308.01804 H 6.4539109 L 6.1979001,307.29033 H 5.068647 l -0.2560108,0.72771 H 4.460183 l 0.9503962,-2.61096 h 0.4629236 z m -0.7329624,-1.0258 -0.4576632,-1.28181 -0.4594166,1.28181 z"
         style="font-size:3.59116507px;stroke-width:0.19238383;fill:#929292;fill-opacity:1"
         id="path5403" />
      <path
         d="M 9.212164,308.01804 H 8.7825568 l -1.2379699,-2.33566 v 2.33566 H 7.2201896 v -2.61096 h 0.5383241 l 1.1292531,2.13225 v -2.13225 H 9.212164 Z"
         style="font-size:3.59116507px;stroke-width:0.19238383;fill:#929292;fill-opacity:1"
         id="path5405" />
      <path
         d="m 11.965156,308.01804 h -0.369988 l -0.256011,-0.72771 h -1.129253 l -0.2560105,0.72771 H 9.6014403 l 0.9503957,-2.61096 h 0.462924 z m -0.732962,-1.0258 -0.457663,-1.28181 -0.459417,1.28181 z"
         style="font-size:3.59116507px;stroke-width:0.19238383;fill:#929292;fill-opacity:1"
         id="path5407" />
      <path
         d="m 14.539293,307.82515 q -0.213927,0.0982 -0.468184,0.17184 -0.252504,0.0719 -0.489226,0.0719 -0.305109,0 -0.559366,-0.0842 -0.254257,-0.0842 -0.433114,-0.2525 -0.180611,-0.17009 -0.278807,-0.42435 -0.0982,-0.25601 -0.0982,-0.59794 0,-0.626 0.364728,-0.98722 0.366481,-0.36298 1.004755,-0.36298 0.222694,0 0.454156,0.0544 0.233215,0.0526 0.501501,0.18061 v 0.41207 h -0.03156 q -0.05436,-0.0421 -0.157815,-0.11047 -0.103457,-0.0684 -0.203406,-0.11397 -0.120991,-0.0544 -0.275299,-0.0894 -0.152555,-0.0368 -0.347193,-0.0368 -0.438375,0 -0.694386,0.28232 -0.254257,0.28056 -0.254257,0.76101 0,0.50677 0.266532,0.78908 0.266532,0.28056 0.725948,0.28056 0.168336,0 0.334919,-0.0333 0.168335,-0.0333 0.294587,-0.0859 v -0.64003 h -0.699646 v -0.3051 h 1.043332 z"
         style="font-size:3.59116507px;stroke-width:0.19238383;fill:#929292;fill-opacity:1"
         id="path5409" />
      <path
         d="m 16.866185,308.01804 h -1.720182 v -2.61096 h 1.720182 v 0.30861 h -1.372989 v 0.71543 h 1.372989 v 0.30862 h -1.372989 v 0.96968 h 1.372989 z"
         style="font-size:3.59116507px;stroke-width:0.19238383;fill:#929292;fill-opacity:1"
         id="path5411" />
      <path
         d="m 19.624438,306.71519 q 0,0.35596 -0.156061,0.64528 -0.154308,0.28933 -0.412073,0.4489 -0.178856,0.11047 -0.399797,0.15957 -0.219188,0.0491 -0.578655,0.0491 h -0.659315 v -2.61096 h 0.652301 q 0.382263,0 0.606711,0.0561 0.226201,0.0544 0.382262,0.1508 0.266532,0.16658 0.41558,0.44363 0.149047,0.27706 0.149047,0.65757 z m -0.362974,-0.005 q 0,-0.30687 -0.106964,-0.51729 -0.106963,-0.21042 -0.319136,-0.33141 -0.154308,-0.0877 -0.327905,-0.12099 -0.173596,-0.0351 -0.415579,-0.0351 h -0.326151 v 2.01477 h 0.326151 q 0.25075,0 0.436621,-0.0368 0.187625,-0.0368 0.343686,-0.13678 0.194638,-0.12449 0.291081,-0.3279 0.0982,-0.20341 0.0982,-0.50851 z"
         style="font-size:3.59116507px;stroke-width:0.19238383;fill:#929292;fill-opacity:1"
         id="path5413" />
    </g>
  </g>
</svg>
